<svg width="60" height="20" viewBox="0 0 60 20" fill="none" xmlns="http://www.w3.org/2000/svg">
<path fill-rule="evenodd" clip-rule="evenodd" d="M10 12C13.785 12 16.958 14.214 17.784 18H2.216C3.042 14.214 6.215 12 10 12ZM6 6C6 3.794 7.794 2 10 2C12.206 2 14 3.794 14 6C14 8.206 12.206 10 10 10C7.794 10 6 8.206 6 6ZM13.758 10.673C15.124 9.57397 16 7.89 16 6C16 2.686 13.314 0 10 0C6.686 0 4 2.686 4 6C4 7.89 4.876 9.57397 6.242 10.673C2.583 12.048 0 15.445 0 20H20C20 15.445 17.417 12.048 13.758 10.673Z" fill="white"/>
<path fill-rule="evenodd" clip-rule="evenodd" d="M30 12C33.785 12 36.958 14.214 37.784 18H22.216C23.042 14.214 26.215 12 30 12ZM26 6C26 3.794 27.794 2 30 2C32.206 2 34 3.794 34 6C34 8.206 32.206 10 30 10C27.794 10 26 8.206 26 6ZM33.758 10.673C35.124 9.57397 36 7.89 36 6C36 2.686 33.314 0 30 0C26.686 0 24 2.686 24 6C24 7.89 24.876 9.57397 26.242 10.673C22.583 12.048 20 15.445 20 20H40C40 15.445 37.417 12.048 33.758 10.673Z" fill="white"/>
<path fill-rule="evenodd" clip-rule="evenodd" d="M50 12C53.785 12 56.958 14.214 57.784 18H42.216C43.042 14.214 46.215 12 50 12ZM46 6C46 3.794 47.794 2 50 2C52.206 2 54 3.794 54 6C54 8.206 52.206 10 50 10C47.794 10 46 8.206 46 6ZM53.758 10.673C55.124 9.57397 56 7.89 56 6C56 2.686 53.314 0 50 0C46.686 0 44 2.686 44 6C44 7.89 44.876 9.57397 46.242 10.673C42.583 12.048 40 15.445 40 20H60C60 15.445 57.417 12.048 53.758 10.673Z" fill="white"/>
</svg>
